<svg xmlns="http://www.w3.org/2000/svg" viewBox="0 0 128 128">
<rect x="4" y="4" width="120" height="120" rx="24" fill="#f5f7fa"/>
<circle cx="64" cy="68" r="48" fill="#eaf0f7"/>
<path d="M35 52h53l-6 43H42z" fill="#ffffff" stroke="#0b1f33" stroke-width="3" stroke-linejoin="round"/>
<path d="M86 61h10c8 0 8 20-4 20h-7" fill="none" stroke="#0b1f33" stroke-width="5" stroke-linecap="round"/>
<path d="M43 65h37" stroke="#006aa7" stroke-width="6" stroke-linecap="round"/>
<path d="M43 76h37" stroke="#fecc00" stroke-width="6" stroke-linecap="round"/>
<path d="M48 39c-7-8 6-10 0-18M64 39c-7-8 6-10 0-18M80 39c-7-8 6-10 0-18" fill="none" stroke="#44586b" stroke-width="4" stroke-linecap="round"/>
<ellipse cx="61" cy="98" rx="31" ry="6" fill="#dbe3ec"/>
<circle cx="56.75" cy="76.75" r="1.6500000000000001" fill="#0b1f33"/>
<circle cx="67.25" cy="76.75" r="1.6500000000000001" fill="#0b1f33"/>
<path d="M57.5 84.25q6 2.25 12 0" fill="none" stroke="#0b1f33" stroke-width="1.875" stroke-linecap="round"/>
<circle cx="95" cy="31" r="10" fill="#ffffff" stroke="#0b1f33" stroke-width="2"/>
<circle cx="83" cy="43" r="4" fill="#ffffff" stroke="#0b1f33" stroke-width="2"/>
<path d="M92 27c1-4 8-4 8 1 0 5-5 4-5 9" fill="none" stroke="#0b1f33" stroke-width="2.5" stroke-linecap="round"/>
<circle cx="95" cy="40" r="1.8" fill="#0b1f33"/>
<rect x="86" y="90" width="30" height="22" rx="4" fill="#006aa7"/>
<rect x="86" y="98" width="30" height="5" fill="#fecc00"/>
<rect x="96" y="90" width="5" height="22" fill="#fecc00"/>
<rect x="86" y="90" width="30" height="22" rx="4" fill="none" stroke="#0b1f33" stroke-width="2"/>
</svg>
