<svg xmlns="http://www.w3.org/2000/svg" viewBox="0 0 128 128">
<rect x="4" y="4" width="120" height="120" rx="24" fill="#f5f7fa"/>
<circle cx="64" cy="68" r="48" fill="#eaf0f7"/>
<path d="M37 58c7-31 27-42 53-28-10 8-15 19-12 33z" fill="#c84a31" stroke="#0b1f33" stroke-width="3" stroke-linejoin="round"/>
<circle cx="88" cy="29" r="7" fill="#ffffff" stroke="#0b1f33" stroke-width="3"/>
<circle cx="64" cy="70" r="26" fill="#f7d9b0" stroke="#0b1f33" stroke-width="3"/>
<path d="M38 78c9 32 44 32 52 0-14 9-34 10-52 0z" fill="#ffffff" stroke="#0b1f33" stroke-width="3"/>
<path d="M44 55h38" stroke="#fecc00" stroke-width="5" stroke-linecap="round"/>
<path d="M48 98h32" stroke="#006aa7" stroke-width="5" stroke-linecap="round"/>
<circle cx="58.05" cy="65.45" r="1.87" fill="#0b1f33"/>
<circle cx="69.95" cy="65.45" r="1.87" fill="#0b1f33"/>
<path d="M58.05 73.95h11.9" fill="none" stroke="#0b1f33" stroke-width="2.125" stroke-linecap="round"/>
<rect x="86" y="90" width="30" height="22" rx="4" fill="#006aa7"/>
<rect x="86" y="98" width="30" height="5" fill="#fecc00"/>
<rect x="96" y="90" width="5" height="22" fill="#fecc00"/>
<rect x="86" y="90" width="30" height="22" rx="4" fill="none" stroke="#0b1f33" stroke-width="2"/>
</svg>
