<svg xmlns="http://www.w3.org/2000/svg" viewBox="0 0 128 128">
<rect x="4" y="4" width="120" height="120" rx="24" fill="#f5f7fa"/>
<circle cx="64" cy="68" r="48" fill="#eaf0f7"/>
<ellipse cx="64" cy="105" rx="37" ry="7" fill="#dbe3ec"/>
<path d="M29 74c0-19 15-34 35-34s35 15 35 34v18c0 8-6 14-14 14H43c-8 0-14-6-14-14z" fill="#9b6332" stroke="#0b1f33" stroke-width="3"/>
<path d="M36 67c6-13 16-20 28-20s23 7 28 20" fill="none" stroke="#d69a55" stroke-width="5" stroke-linecap="round"/>
<path d="M45 58c3 7 3 13 0 20M59 52c4 8 4 16 0 25M74 53c4 8 4 16 0 25M87 60c3 7 3 13 0 20" fill="none" stroke="#6f431f" stroke-width="3" stroke-linecap="round"/>
<circle cx="56.8" cy="78" r="2.1" fill="#0b1f33"/>
<circle cx="71.2" cy="78" r="2.1" fill="#0b1f33"/>
<path d="M58 87q6 2.6 12 0" fill="none" stroke="#0b1f33" stroke-width="2.2" stroke-linecap="round"/>
<circle cx="95" cy="31" r="10" fill="#ffffff" stroke="#0b1f33" stroke-width="2"/>
<circle cx="83" cy="43" r="4" fill="#ffffff" stroke="#0b1f33" stroke-width="2"/>
<path d="M92 27c1-4 8-4 8 1 0 5-5 4-5 9" fill="none" stroke="#0b1f33" stroke-width="2.5" stroke-linecap="round"/>
<circle cx="95" cy="40" r="1.8" fill="#0b1f33"/>
<rect x="86" y="90" width="30" height="22" rx="4" fill="#006aa7"/>
<rect x="86" y="98" width="30" height="5" fill="#fecc00"/>
<rect x="96" y="90" width="5" height="22" fill="#fecc00"/>
<rect x="86" y="90" width="30" height="22" rx="4" fill="none" stroke="#0b1f33" stroke-width="2"/>
</svg>
