<svg xmlns="http://www.w3.org/2000/svg" viewBox="0 0 128 128">
<rect x="4" y="4" width="120" height="120" rx="24" fill="#f5f7fa"/>
<circle cx="64" cy="68" r="48" fill="#eaf0f7"/>
<path d="M31 73c4-21 22-34 42-28l9-11c8 2 14 9 14 18l-11 2-6 15 12 13-7 8-15-10H45l-8 16h-9l7-20z" fill="#c84a31" stroke="#0b1f33" stroke-width="3" stroke-linejoin="round"/>
<path d="M50 52c8 4 18 4 26 0" fill="none" stroke="#fecc00" stroke-width="4" stroke-linecap="round"/>
<path d="M45 62h30" stroke="#006aa7" stroke-width="5" stroke-linecap="round"/>
<path d="M72 47l7-11" stroke="#0b1f33" stroke-width="3" stroke-linecap="round"/>
<circle cx="64.05" cy="54.45" r="1.87" fill="#0b1f33"/>
<circle cx="75.95" cy="54.45" r="1.87" fill="#0b1f33"/>
<path d="M64.9 62.95q6 2.55 12 0" fill="none" stroke="#0b1f33" stroke-width="2.125" stroke-linecap="round"/>
<circle cx="95" cy="31" r="10" fill="#ffffff" stroke="#0b1f33" stroke-width="2"/>
<circle cx="83" cy="43" r="4" fill="#ffffff" stroke="#0b1f33" stroke-width="2"/>
<path d="M92 27c1-4 8-4 8 1 0 5-5 4-5 9" fill="none" stroke="#0b1f33" stroke-width="2.5" stroke-linecap="round"/>
<circle cx="95" cy="40" r="1.8" fill="#0b1f33"/>
<rect x="86" y="90" width="30" height="22" rx="4" fill="#006aa7"/>
<rect x="86" y="98" width="30" height="5" fill="#fecc00"/>
<rect x="96" y="90" width="5" height="22" fill="#fecc00"/>
<rect x="86" y="90" width="30" height="22" rx="4" fill="none" stroke="#0b1f33" stroke-width="2"/>
</svg>
