<svg xmlns="http://www.w3.org/2000/svg" viewBox="0 0 128 128" role="img" aria-labelledby="title desc"><title id="title">Lumi mascot happy</title><desc id="desc">A lantern bookmark mascot smiling with a bright warm glow.</desc><g id="shadow" fill="#0b1f33" opacity=".12"><ellipse cx="64" cy="112" rx="31" ry="7"/></g><g id="body" stroke="#0b1f33" stroke-width="4" stroke-linecap="round" stroke-linejoin="round"><path fill="#0e7c8a" d="M43 31c0-7 6-13 13-13h16c7 0 13 6 13 13v56c0 9-7 16-16 16H59c-9 0-16-7-16-16V31Z"/><path fill="#fff3cf" d="M52 38h24v38c0 7-5 12-12 12s-12-5-12-12V38Z"/><path fill="#eaf0f7" d="M54 18h20l5 13H49l5-13Z"/><path fill="#b5527a" d="M53 101l11 12 11-12H53Z"/></g><g id="decor" stroke="#0b1f33" stroke-width="3" stroke-linecap="round" stroke-linejoin="round"><path fill="none" d="M52 51h24M52 64h24"/><circle cx="48" cy="86" r="4" fill="#eaf0f7"/><circle cx="80" cy="86" r="4" fill="#eaf0f7"/></g><g id="face" stroke="#0b1f33" stroke-width="4" stroke-linecap="round"><path fill="none" d="M56 57c3 3 6 3 8 0M66 57c3 3 6 3 8 0M57 69c5 6 10 6 15 0"/></g><g id="expression" stroke-linecap="round" stroke-linejoin="round"><path d="M30 42l4 7 8-11" fill="none" stroke="#1e874b" stroke-width="4"/><circle cx="91" cy="45" r="4" fill="#fecc00" stroke="#0b1f33" stroke-width="3"/></g></svg>
