<svg xmlns="http://www.w3.org/2000/svg" viewBox="0 0 128 128">
<rect x="4" y="4" width="120" height="120" rx="24" fill="#f5f7fa"/>
<circle cx="64" cy="68" r="48" fill="#eaf0f7"/>
<path d="M36 49c-12-8-16-19-8-25 6 10 15 11 24 8m40 17c12-8 16-19 8-25-6 10-15 11-24 8" fill="none" stroke="#6b4a1f" stroke-width="7" stroke-linecap="round" stroke-linejoin="round"/>
<ellipse cx="64" cy="68" rx="31" ry="34" fill="#6b4a1f" stroke="#0b1f33" stroke-width="3"/>
<ellipse cx="64" cy="84" rx="18" ry="14" fill="#f2b879" stroke="#0b1f33" stroke-width="3"/>
<path d="M43 50l-7 10M85 50l7 10" stroke="#0b1f33" stroke-width="4" stroke-linecap="round"/>
<path d="M44 96c13 9 28 9 40 0" fill="none" stroke="#006aa7" stroke-width="5" stroke-linecap="round"/>
<path d="M52 101h24" stroke="#fecc00" stroke-width="4" stroke-linecap="round"/>
<circle cx="57.35" cy="62.15" r="2.09" fill="#0b1f33"/>
<circle cx="70.65" cy="62.15" r="2.09" fill="#0b1f33"/>
<path d="M57.35 71.65h13.299999999999999" fill="none" stroke="#0b1f33" stroke-width="2.375" stroke-linecap="round"/>
<rect x="86" y="90" width="30" height="22" rx="4" fill="#006aa7"/>
<rect x="86" y="98" width="30" height="5" fill="#fecc00"/>
<rect x="96" y="90" width="5" height="22" fill="#fecc00"/>
<rect x="86" y="90" width="30" height="22" rx="4" fill="none" stroke="#0b1f33" stroke-width="2"/>
</svg>
