<svg xmlns="http://www.w3.org/2000/svg" viewBox="0 0 128 128" role="img" aria-labelledby="title desc"><title id="title">Dala mascot celebrate</title><desc id="desc">A blue Dala horse mascot celebrating with gold and teal confetti.</desc><g id="shadow" fill="#0b1f33" opacity=".12"><ellipse cx="58" cy="114" rx="39" ry="7"/></g><g id="body" stroke="#0b1f33" stroke-width="4" stroke-linecap="round" stroke-linejoin="round"><path fill="#006aa7" d="M29 91V59c0-9 7-16 16-16h19c8 0 15 4 20 10l7 9 5-20c2-8 8-14 16-16l6-1-2 18c-1 10-5 19-12 27l-6 7v14h7c3 0 5 2 5 5v9H84V88H49v17H27v-9c0-3 2-5 5-5h-3Z"/><path fill="#003a5c" d="M40 43c4-8 12-14 22-16l7 17H45l-5-1Z"/><path fill="#eaf0f7" d="M97 44c4-7 10-12 18-14l-2 12c-1 5-3 10-7 14l-9-12Z"/></g><g id="decor" stroke="#0b1f33" stroke-width="3" stroke-linecap="round" stroke-linejoin="round"><path fill="#fff3cf" d="M55 58h28l4 22H50l5-22Z"/><path fill="#fecc00" d="M60 64h18l2 10H57l3-10Z"/><path fill="none" d="M45 51c-3 5-4 10-2 15M39 58h8M66 58v22M75 58v22"/><circle cx="37" cy="74" r="3" fill="#fecc00"/></g><g id="face" stroke="#0b1f33" stroke-width="4" stroke-linecap="round" stroke-linejoin="round"><path fill="none" d="M95 51c3 4 8 4 11 0"/><path fill="none" d="M93 62c5 7 13 7 17 0"/><circle cx="99" cy="47" r="2.5" fill="#0b1f33" stroke="none"/></g><g id="expression" stroke-linecap="round" stroke-linejoin="round"><path d="M20 40l7 3-6 4 3 7-7-3-6 4 2-8-6-4 8-1 3-7 2 5Z" fill="#fecc00" stroke="#0b1f33" stroke-width="3"/><path d="M44 25v9M39 30h10M112 79v9M107 84h10" fill="none" stroke="#0e7c8a" stroke-width="4"/><circle cx="27" cy="72" r="3" fill="#b5527a"/><circle cx="116" cy="61" r="3" fill="#fecc00"/><path d="M79 25l5 5M84 25l-5 5" stroke="#1e874b" stroke-width="4"/></g></svg>
