<svg xmlns="http://www.w3.org/2000/svg" viewBox="0 0 128 128" role="img" aria-labelledby="title desc"><title id="title">Dala mascot oops</title><desc id="desc">A blue Dala horse mascot with a gentle uncertain expression for an incorrect answer.</desc><g id="shadow" fill="#0b1f33" opacity=".12"><ellipse cx="58" cy="112" rx="40" ry="8"/></g><g id="body" stroke="#0b1f33" stroke-width="4" stroke-linecap="round" stroke-linejoin="round"><path fill="#006aa7" d="M29 91V59c0-9 7-16 16-16h19c8 0 15 4 20 10l6 8 5-20c2-8 8-14 16-16l6-1-2 18c-1 10-5 19-12 27l-6 7v15h7c3 0 5 2 5 5v9H82V87H48v18H28V96c0-3 2-5 5-5h-4Z"/><path fill="#003a5c" d="M40 43c4-8 12-14 22-16l7 17H45l-5-1Z"/><path fill="#eaf0f7" d="M95 44c4-7 10-12 18-14l-2 12c-1 5-3 10-7 14l-9-12Z"/></g><g id="decor" stroke="#0b1f33" stroke-width="3" stroke-linecap="round" stroke-linejoin="round"><path fill="#fff3cf" d="M55 58h28l4 22H50l5-22Z"/><path fill="#fecc00" d="M60 64h18l2 10H57l3-10Z"/><path fill="none" d="M45 51c-3 5-4 10-2 15M39 58h8M66 58v22M75 58v22"/><circle cx="37" cy="74" r="3" fill="#c77700"/></g><g id="face" stroke="#0b1f33" stroke-width="4" stroke-linecap="round" stroke-linejoin="round"><path fill="none" d="M95 51c3-1 7-1 10 1"/><path fill="#fff3cf" d="M99 62c3 0 5 2 5 5s-2 5-5 5-5-2-5-5 2-5 5-5Z"/><circle cx="99" cy="47" r="2.5" fill="#0b1f33" stroke="none"/><circle cx="108" cy="57" r="2.5" fill="#c77700" opacity=".35" stroke="none"/></g><g id="expression" fill="none" stroke="#c77700" stroke-width="3" stroke-linecap="round"><path d="M21 49c5-4 11-4 16 0M27 43v12"/></g></svg>
