<svg xmlns="http://www.w3.org/2000/svg" viewBox="0 0 128 128" role="img" aria-labelledby="title desc"><title id="title">Dala mascot thinking</title><desc id="desc">A blue Dala horse mascot looking thoughtful with a small teal question mark.</desc><g id="shadow" fill="#0b1f33" opacity=".12"><ellipse cx="58" cy="112" rx="40" ry="8"/></g><g id="body" stroke="#0b1f33" stroke-width="4" stroke-linecap="round" stroke-linejoin="round"><path fill="#006aa7" d="M29 91V59c0-9 7-16 16-16h19c8 0 15 4 20 10l5 7 4-19c2-8 8-14 16-16l6-1-1 17c-1 10-5 19-12 27l-6 7v16h7c3 0 5 2 5 5v9H82V87H48v18H28V96c0-3 2-5 5-5h-4Z"/><path fill="#003a5c" d="M40 43c4-8 12-14 22-16l7 17H45l-5-1Z"/><path fill="#eaf0f7" d="M94 44c4-7 10-12 18-14l-1 11c-1 5-4 10-8 14l-9-11Z"/></g><g id="decor" stroke="#0b1f33" stroke-width="3" stroke-linecap="round" stroke-linejoin="round"><path fill="#fff3cf" d="M55 58h28l4 22H50l5-22Z"/><path fill="#fecc00" d="M60 64h18l2 10H57l3-10Z"/><path fill="none" d="M45 51c-3 5-4 10-2 15M39 58h8M66 58v22M75 58v22"/><circle cx="37" cy="74" r="3" fill="#0e7c8a"/></g><g id="face" stroke="#0b1f33" stroke-width="4" stroke-linecap="round" stroke-linejoin="round"><path fill="none" d="M94 51c4-2 8-1 11 2"/><path fill="none" d="M95 66c4-2 8-2 12 0"/><circle cx="98" cy="47" r="2.5" fill="#0b1f33" stroke="none"/></g><g id="expression" fill="none" stroke="#0e7c8a" stroke-width="4" stroke-linecap="round" stroke-linejoin="round"><path d="M24 47c0-6 5-10 11-10 7 0 11 4 11 9 0 7-8 8-8 14"/><path d="M38 71h.1"/></g></svg>
