<svg xmlns="http://www.w3.org/2000/svg" viewBox="0 0 128 128">
<rect x="4" y="4" width="120" height="120" rx="24" fill="#f5f7fa"/>
<circle cx="64" cy="68" r="48" fill="#eaf0f7"/>
<circle cx="63" cy="65" r="37" fill="#f2b879" stroke="#0b1f33" stroke-width="3"/>
<path d="M39 67c2-20 35-29 48-11 11 16-13 34-29 22-11-8 0-24 13-18" fill="none" stroke="#6b4a1f" stroke-width="7" stroke-linecap="round"/>
<path d="M36 45c15-13 42-15 58 6" fill="none" stroke="#fecc00" stroke-width="4" stroke-linecap="round"/>
<path d="M45 91c16 7 38 6 50-6" fill="none" stroke="#006aa7" stroke-width="4" stroke-linecap="round"/>
<path d="M57.349999999999994 65.45q2 -2.55 4 0" fill="none" stroke="#0b1f33" stroke-width="2.125" stroke-linecap="round"/>
<path d="M69.25 65.45q2 -2.55 4 0" fill="none" stroke="#0b1f33" stroke-width="2.125" stroke-linecap="round"/>
<path d="M58.2 73.95q8 6.8 16 0" fill="none" stroke="#0b1f33" stroke-width="2.125" stroke-linecap="round"/>
<rect x="86" y="90" width="30" height="22" rx="4" fill="#006aa7"/>
<rect x="86" y="98" width="30" height="5" fill="#fecc00"/>
<rect x="96" y="90" width="5" height="22" fill="#fecc00"/>
<rect x="86" y="90" width="30" height="22" rx="4" fill="none" stroke="#0b1f33" stroke-width="2"/>
</svg>
