<svg xmlns="http://www.w3.org/2000/svg" viewBox="0 0 128 128">
<rect x="4" y="4" width="120" height="120" rx="24" fill="#f5f7fa"/>
<circle cx="64" cy="68" r="48" fill="#eaf0f7"/>
<circle cx="64" cy="81" r="29" fill="#ffffff" stroke="#0b1f33" stroke-width="3"/>
<circle cx="64" cy="45" r="22" fill="#ffffff" stroke="#0b1f33" stroke-width="3"/>
<path d="M45 64h38" stroke="#006aa7" stroke-width="7" stroke-linecap="round"/>
<path d="M50 70h26" stroke="#fecc00" stroke-width="5" stroke-linecap="round"/>
<path d="M42 27h44" stroke="#0b1f33" stroke-width="6" stroke-linecap="round"/>
<path d="M50 25l3-14h22l3 14z" fill="#22384c" stroke="#0b1f33" stroke-width="3" stroke-linejoin="round"/>
<path d="M32 82l-19-8M96 82l19-8" stroke="#6b4a1f" stroke-width="4" stroke-linecap="round"/>
<path d="M56.98 43.66q2 -2.34 4 0" fill="none" stroke="#0b1f33" stroke-width="1.9500000000000002" stroke-linecap="round"/>
<path d="M67.89999999999999 43.66q2 -2.34 4 0" fill="none" stroke="#0b1f33" stroke-width="1.9500000000000002" stroke-linecap="round"/>
<path d="M57.76 51.46q8 6.24 16 0" fill="none" stroke="#0b1f33" stroke-width="1.9500000000000002" stroke-linecap="round"/>
<path d="M25 20l2 5 5 2-5 2-2 5-2-5-5-2 5-2z" fill="#fecc00" stroke="#0b1f33" stroke-width="1.5"/>
<path d="M102 27l2 5 5 2-5 2-2 5-2-5-5-2 5-2z" fill="#fecc00" stroke="#0b1f33" stroke-width="1.5"/>
<rect x="86" y="90" width="30" height="22" rx="4" fill="#006aa7"/>
<rect x="86" y="98" width="30" height="5" fill="#fecc00"/>
<rect x="96" y="90" width="5" height="22" fill="#fecc00"/>
<rect x="86" y="90" width="30" height="22" rx="4" fill="none" stroke="#0b1f33" stroke-width="2"/>
</svg>
