<svg xmlns="http://www.w3.org/2000/svg" viewBox="0 0 128 128">
<rect x="4" y="4" width="120" height="120" rx="24" fill="#f5f7fa"/>
<circle cx="64" cy="68" r="48" fill="#eaf0f7"/>
<circle cx="64" cy="81" r="29" fill="#ffffff" stroke="#0b1f33" stroke-width="3"/>
<circle cx="64" cy="45" r="22" fill="#ffffff" stroke="#0b1f33" stroke-width="3"/>
<path d="M45 64h38" stroke="#006aa7" stroke-width="7" stroke-linecap="round"/>
<path d="M50 70h26" stroke="#fecc00" stroke-width="5" stroke-linecap="round"/>
<path d="M42 27h44" stroke="#0b1f33" stroke-width="6" stroke-linecap="round"/>
<path d="M50 25l3-14h22l3 14z" fill="#22384c" stroke="#0b1f33" stroke-width="3" stroke-linejoin="round"/>
<path d="M32 82l-19-8M96 82l19-8" stroke="#6b4a1f" stroke-width="4" stroke-linecap="round"/>
<circle cx="58.54" cy="43.66" r="1.7160000000000002" fill="#0b1f33"/>
<circle cx="69.46" cy="43.66" r="1.7160000000000002" fill="#0b1f33"/>
<path d="M59.32 51.46q6 2.34 12 0" fill="none" stroke="#0b1f33" stroke-width="1.9500000000000002" stroke-linecap="round"/>
<circle cx="95" cy="31" r="10" fill="#ffffff" stroke="#0b1f33" stroke-width="2"/>
<circle cx="83" cy="43" r="4" fill="#ffffff" stroke="#0b1f33" stroke-width="2"/>
<path d="M92 27c1-4 8-4 8 1 0 5-5 4-5 9" fill="none" stroke="#0b1f33" stroke-width="2.5" stroke-linecap="round"/>
<circle cx="95" cy="40" r="1.8" fill="#0b1f33"/>
<rect x="86" y="90" width="30" height="22" rx="4" fill="#006aa7"/>
<rect x="86" y="98" width="30" height="5" fill="#fecc00"/>
<rect x="96" y="90" width="5" height="22" fill="#fecc00"/>
<rect x="86" y="90" width="30" height="22" rx="4" fill="none" stroke="#0b1f33" stroke-width="2"/>
</svg>
