<svg xmlns="http://www.w3.org/2000/svg" viewBox="0 0 128 128">
<rect x="4" y="4" width="120" height="120" rx="24" fill="#f5f7fa"/>
<circle cx="64" cy="68" r="48" fill="#eaf0f7"/>
<path d="M64 31v72" stroke="#1e874b" stroke-width="8" stroke-linecap="round"/>
<path d="M38 48h52" stroke="#1e874b" stroke-width="8" stroke-linecap="round"/>
<circle cx="39" cy="64" r="13" fill="#e6f4ec" stroke="#1e874b" stroke-width="5"/>
<circle cx="89" cy="64" r="13" fill="#e6f4ec" stroke="#1e874b" stroke-width="5"/>
<path d="M55 51l18 54M73 51l-18 54" stroke="#fecc00" stroke-width="4" stroke-linecap="round"/>
<path d="M49 52c8 9 22 9 30 0" fill="none" stroke="#006aa7" stroke-width="4" stroke-linecap="round"/>
<ellipse cx="64" cy="92" rx="23" ry="19" fill="#f7d9b0" stroke="#0b1f33" stroke-width="3"/>
<path d="M57.52 88.84q2 -2.16 4 0" fill="none" stroke="#0b1f33" stroke-width="1.7999999999999998" stroke-linecap="round"/>
<path d="M67.60000000000001 88.84q2 -2.16 4 0" fill="none" stroke="#0b1f33" stroke-width="1.7999999999999998" stroke-linecap="round"/>
<path d="M58.24 96.04q8 5.76 16 0" fill="none" stroke="#0b1f33" stroke-width="1.7999999999999998" stroke-linecap="round"/>
<path d="M25 20l2 5 5 2-5 2-2 5-2-5-5-2 5-2z" fill="#fecc00" stroke="#0b1f33" stroke-width="1.5"/>
<path d="M102 27l2 5 5 2-5 2-2 5-2-5-5-2 5-2z" fill="#fecc00" stroke="#0b1f33" stroke-width="1.5"/>
<rect x="86" y="90" width="30" height="22" rx="4" fill="#006aa7"/>
<rect x="86" y="98" width="30" height="5" fill="#fecc00"/>
<rect x="96" y="90" width="5" height="22" fill="#fecc00"/>
<rect x="86" y="90" width="30" height="22" rx="4" fill="none" stroke="#0b1f33" stroke-width="2"/>
</svg>
