<svg xmlns="http://www.w3.org/2000/svg" viewBox="0 0 128 128">
<rect x="4" y="4" width="120" height="120" rx="24" fill="#f5f7fa"/>
<circle cx="64" cy="68" r="48" fill="#eaf0f7"/>
<path d="M64 31v72" stroke="#1e874b" stroke-width="8" stroke-linecap="round"/>
<path d="M38 48h52" stroke="#1e874b" stroke-width="8" stroke-linecap="round"/>
<circle cx="39" cy="64" r="13" fill="#e6f4ec" stroke="#1e874b" stroke-width="5"/>
<circle cx="89" cy="64" r="13" fill="#e6f4ec" stroke="#1e874b" stroke-width="5"/>
<path d="M55 51l18 54M73 51l-18 54" stroke="#fecc00" stroke-width="4" stroke-linecap="round"/>
<path d="M49 52c8 9 22 9 30 0" fill="none" stroke="#006aa7" stroke-width="4" stroke-linecap="round"/>
<ellipse cx="64" cy="92" rx="23" ry="19" fill="#f7d9b0" stroke="#0b1f33" stroke-width="3"/>
<circle cx="58.96" cy="88.84" r="1.584" fill="#0b1f33"/>
<circle cx="69.04" cy="88.84" r="1.584" fill="#0b1f33"/>
<path d="M59.68 96.04q6 2.16 12 0" fill="none" stroke="#0b1f33" stroke-width="1.7999999999999998" stroke-linecap="round"/>
<circle cx="95" cy="31" r="10" fill="#ffffff" stroke="#0b1f33" stroke-width="2"/>
<circle cx="83" cy="43" r="4" fill="#ffffff" stroke="#0b1f33" stroke-width="2"/>
<path d="M92 27c1-4 8-4 8 1 0 5-5 4-5 9" fill="none" stroke="#0b1f33" stroke-width="2.5" stroke-linecap="round"/>
<circle cx="95" cy="40" r="1.8" fill="#0b1f33"/>
<rect x="86" y="90" width="30" height="22" rx="4" fill="#006aa7"/>
<rect x="86" y="98" width="30" height="5" fill="#fecc00"/>
<rect x="96" y="90" width="5" height="22" fill="#fecc00"/>
<rect x="86" y="90" width="30" height="22" rx="4" fill="none" stroke="#0b1f33" stroke-width="2"/>
</svg>
